<mxfile host="65bd71144e">
    <diagram id="P1fPwCIqRLS1VGU1DLKa" name="Page-1">
        <mxGraphModel dx="798" dy="478" grid="1" gridSize="10" guides="1" tooltips="1" connect="1" arrows="1" fold="1" page="1" pageScale="1" pageWidth="850" pageHeight="1100" math="0" shadow="0">
            <root>
                <mxCell id="0"/>
                <mxCell id="1" parent="0"/>
                <mxCell id="35" value="" style="rounded=0;whiteSpace=wrap;html=1;" vertex="1" parent="1">
                    <mxGeometry x="10" width="790" height="790" as="geometry"/>
                </mxCell>
                <mxCell id="3" value="" style="rounded=0;whiteSpace=wrap;html=1;" vertex="1" parent="1">
                    <mxGeometry x="510" y="10" width="270" height="80" as="geometry"/>
                </mxCell>
                <mxCell id="2" value="Bjorn Addington's portfolio" style="rounded=0;whiteSpace=wrap;html=1;" vertex="1" parent="1">
                    <mxGeometry x="20" y="20" width="140" height="60" as="geometry"/>
                </mxCell>
                <mxCell id="15" value="" style="group" vertex="1" connectable="0" parent="1">
                    <mxGeometry x="520" y="20" width="250" height="60" as="geometry"/>
                </mxCell>
                <mxCell id="4" value="About me" style="rounded=0;whiteSpace=wrap;html=1;fillColor=#a20025;fontColor=#ffffff;strokeColor=#6F0000;" vertex="1" parent="15">
                    <mxGeometry width="70" height="60" as="geometry"/>
                </mxCell>
                <mxCell id="10" value="" style="edgeStyle=none;html=1;startArrow=none;" edge="1" parent="15" source="7" target="4">
                    <mxGeometry relative="1" as="geometry"/>
                </mxCell>
                <mxCell id="9" value="My projects" style="rounded=0;whiteSpace=wrap;html=1;" vertex="1" parent="15">
                    <mxGeometry x="180" width="70" height="60" as="geometry"/>
                </mxCell>
                <mxCell id="7" value="Contact info" style="rounded=0;whiteSpace=wrap;html=1;" vertex="1" parent="15">
                    <mxGeometry x="90" width="70" height="60" as="geometry"/>
                </mxCell>
                <mxCell id="11" value="" style="edgeStyle=none;html=1;endArrow=none;" edge="1" parent="15" source="9" target="7">
                    <mxGeometry relative="1" as="geometry">
                        <mxPoint x="190" y="30" as="sourcePoint"/>
                        <mxPoint x="70" y="30" as="targetPoint"/>
                    </mxGeometry>
                </mxCell>
                <mxCell id="18" value="My face" style="rounded=0;whiteSpace=wrap;html=1;" vertex="1" parent="1">
                    <mxGeometry x="160" y="100" width="350" height="280" as="geometry"/>
                </mxCell>
                <mxCell id="20" value="My hobbies" style="rounded=0;whiteSpace=wrap;html=1;" vertex="1" parent="1">
                    <mxGeometry x="520" y="110" width="250" height="60" as="geometry"/>
                </mxCell>
                <mxCell id="21" value="My achivements" style="rounded=0;whiteSpace=wrap;html=1;" vertex="1" parent="1">
                    <mxGeometry x="520" y="180" width="250" height="60" as="geometry"/>
                </mxCell>
                <mxCell id="22" value="Past experience" style="rounded=0;whiteSpace=wrap;html=1;" vertex="1" parent="1">
                    <mxGeometry x="520" y="250" width="250" height="60" as="geometry"/>
                </mxCell>
                <mxCell id="23" value="Where I want to go" style="rounded=0;whiteSpace=wrap;html=1;" vertex="1" parent="1">
                    <mxGeometry x="520" y="320" width="250" height="60" as="geometry"/>
                </mxCell>
                <mxCell id="33" value="" style="group" vertex="1" connectable="0" parent="1">
                    <mxGeometry x="20" y="510" width="160" height="160" as="geometry"/>
                </mxCell>
                <mxCell id="32" value="" style="rounded=0;whiteSpace=wrap;html=1;" vertex="1" parent="33">
                    <mxGeometry width="160" height="160" as="geometry"/>
                </mxCell>
                <mxCell id="24" value="Email" style="rounded=0;whiteSpace=wrap;html=1;" vertex="1" parent="33">
                    <mxGeometry x="15" y="10" width="130" height="40" as="geometry"/>
                </mxCell>
                <mxCell id="25" value="Linkedin" style="rounded=0;whiteSpace=wrap;html=1;" vertex="1" parent="33">
                    <mxGeometry x="15" y="60" width="130" height="40" as="geometry"/>
                </mxCell>
                <mxCell id="26" value="Phonenumber" style="rounded=0;whiteSpace=wrap;html=1;" vertex="1" parent="33">
                    <mxGeometry x="15" y="110" width="130" height="40" as="geometry"/>
                </mxCell>
                <mxCell id="40" value="" style="endArrow=none;html=1;entryX=0.19;entryY=0.519;entryDx=0;entryDy=0;entryPerimeter=0;exitX=0.19;exitY=0.987;exitDx=0;exitDy=0;exitPerimeter=0;" edge="1" parent="1" source="35" target="35">
                    <mxGeometry width="50" height="50" relative="1" as="geometry">
                        <mxPoint x="160" y="550" as="sourcePoint"/>
                        <mxPoint x="210" y="500" as="targetPoint"/>
                        <Array as="points">
                            <mxPoint x="220" y="600"/>
                        </Array>
                    </mxGeometry>
                </mxCell>
                <mxCell id="41" value="project 3" style="rounded=0;whiteSpace=wrap;html=1;" vertex="1" parent="1">
                    <mxGeometry x="195" y="720" width="315" height="60" as="geometry"/>
                </mxCell>
                <mxCell id="42" value="Project 1" style="rounded=0;whiteSpace=wrap;html=1;" vertex="1" parent="1">
                    <mxGeometry x="200" y="410" width="310" height="120" as="geometry"/>
                </mxCell>
                <mxCell id="43" value="Poject 2" style="rounded=0;whiteSpace=wrap;html=1;" vertex="1" parent="1">
                    <mxGeometry x="220" y="570" width="290" height="120" as="geometry"/>
                </mxCell>
            </root>
        </mxGraphModel>
    </diagram>
</mxfile>